<svg width="1433" height="744" viewBox="0 0 1433 744" fill="none" xmlns="http://www.w3.org/2000/svg">
<path fill-rule="evenodd" clip-rule="evenodd" d="M91.5882 0H83.9096V33.9978L71.1738 2.47558L64.0545 5.35196L77.1203 37.6908L52.4574 13.0279L47.028 18.4574L70.6662 42.0956L40.0328 28.7116L36.9587 35.7478L69.3724 49.9096H34V57.5882H69.3723L36.9587 71.7499L40.0328 78.7862L70.6662 65.4022L47.028 89.0404L52.4574 94.4696L77.1203 69.8069L64.0545 102.146L71.1738 105.022L83.9096 73.5V107.498H91.5882V73.5L104.324 105.022L111.443 102.146L98.3777 69.8069L123.04 94.4696L128.47 89.0404L104.831 65.4022L135.465 78.7862L138.539 71.7499L106.126 57.5882H141.498V49.9096H106.125L138.539 35.7478L135.465 28.7116L104.831 42.0956L128.47 18.4574L123.04 13.0279L98.3777 37.6908L111.443 5.35196L104.324 2.47558L91.5882 33.9978V0Z" fill="#9C88FB"/>
<path d="M998.619 148.029C1033.06 89.3237 1117.94 89.3238 1152.38 148.029L1153.63 150.161C1169.52 177.243 1198.49 193.967 1229.89 194.187L1232.36 194.205C1300.42 194.681 1342.86 268.184 1309.24 327.365L1308.02 329.515C1292.51 356.817 1292.51 390.266 1308.02 417.568L1309.24 419.716C1342.86 478.9 1300.42 552.401 1232.36 552.878L1229.89 552.894C1198.49 553.115 1169.52 569.84 1153.63 596.921L1152.38 599.053C1117.94 657.759 1033.06 657.759 998.619 599.053L997.368 596.921C981.478 569.84 952.511 553.115 921.112 552.894L918.64 552.878C850.578 552.401 808.142 478.9 841.76 419.716L842.981 417.568C858.49 390.266 858.49 356.817 842.981 329.515L841.76 327.365C808.142 268.184 850.578 194.681 918.64 194.205L921.112 194.187C952.511 193.967 981.478 177.243 997.368 150.161L998.619 148.029Z" fill="url(#paint0_linear_38_1642)"/>
<path fill-rule="evenodd" clip-rule="evenodd" d="M779.857 566H774.143V591.301L764.665 567.842L759.367 569.983L769.09 594.05L750.736 575.695L746.695 579.736L764.287 597.328L741.49 587.367L739.202 592.604L763.324 603.143H737V608.857H763.324L739.202 619.396L741.49 624.633L764.287 614.672L746.695 632.264L750.736 636.304L769.09 617.95L759.367 642.017L764.665 644.158L774.143 620.699V646H779.857V620.699L789.335 644.158L794.633 642.017L784.91 617.95L803.264 636.304L807.304 632.264L789.713 614.672L812.51 624.633L814.798 619.396L790.676 608.857H817V603.143H790.676L814.798 592.604L812.51 587.367L789.713 597.328L807.304 579.736L803.264 575.695L784.91 594.05L794.633 569.983L789.335 567.842L779.857 591.301V566Z" fill="#FFCF59"/>
<path d="M932.356 329.576C932.356 329.576 956.646 399.546 1003.01 425.004" stroke="#DADEEB" stroke-width="1.88345" stroke-miterlimit="10" stroke-linecap="round"/>
<path d="M1217.12 429.77L1139.48 384.943C1137.83 383.988 1136.46 382.615 1135.51 380.962C1134.56 379.309 1134.05 377.434 1134.05 375.526C1134.05 373.618 1134.56 371.744 1135.51 370.091C1136.46 368.438 1137.83 367.065 1139.48 366.109L1217.12 321.289C1218.77 320.331 1220.65 319.826 1222.56 319.825C1224.47 319.823 1226.35 320.325 1228 321.28C1229.66 322.235 1231.03 323.609 1231.99 325.264C1232.94 326.918 1233.45 328.796 1233.44 330.706V420.321C1233.45 422.234 1232.95 424.114 1232 425.772C1231.04 427.43 1229.67 428.807 1228.01 429.765C1226.36 430.724 1224.48 431.228 1222.57 431.229C1220.66 431.23 1218.78 430.726 1217.12 429.77Z" stroke="#DADEEB" stroke-width="1.88345" stroke-miterlimit="10"/>
<path d="M1005.16 275.508C1005.16 275.508 1000.66 297.727 1005.16 312.28" stroke="#FF2633" stroke-width="2.51127" stroke-miterlimit="10" stroke-linecap="round"/>
<path d="M1286 573.806C1286 573.806 1346.89 534.983 1339.41 482" stroke="#FF2633" stroke-width="2.51127" stroke-miterlimit="10" stroke-linecap="round"/>
<path d="M1010.37 495.388C1010.37 495.388 1011.97 515.638 1003.23 528.984C994.486 542.331 985.975 550.841 991.038 566.51L1056.84 533.147L1048.79 487.585L1010.37 495.388Z" fill="#F66742"/>
<path d="M1009.43 521.373L1024.49 518.371" stroke="white" stroke-width="2.12413" stroke-miterlimit="10" stroke-linecap="round"/>
<path d="M1079.75 537.697C1079.75 537.697 1084.77 558.27 1077.98 573.454C1071.19 588.639 1063.84 598.811 1071.64 614.054L1133.84 568.811L1118.01 523.25L1079.75 537.697Z" fill="#F66742"/>
<path d="M1082.98 567.497L1098.63 564.182" stroke="white" stroke-width="2.21455" stroke-miterlimit="10" stroke-linecap="round"/>
<path d="M1031.73 218.791C1031.73 218.791 1027.7 198.513 1034.78 191.381C1041.87 184.249 1053.39 181.122 1059.36 182.296C1063.41 183.106 1068.68 184.958 1069.4 195.581C1070.12 206.204 1068.53 209.751 1068.53 209.751C1068.53 209.751 1064.54 223.77 1056.9 225.113C1049.25 226.457 1034.36 226.419 1031.73 218.791Z" fill="#F3ABAA"/>
<path d="M1059.22 183.188C1059.22 183.188 1059.67 188.298 1060.22 196.303" stroke="#FF2633" stroke-width="1.25564" stroke-miterlimit="10" stroke-linecap="round"/>
<path d="M1049.46 185.059C1049.46 185.059 1050.33 192.335 1051.72 200.384C1052.71 206.072 1058.43 207.817 1060.79 203.014" stroke="#FF2633" stroke-width="1.25564" stroke-miterlimit="10" stroke-linecap="round"/>
<path d="M1041.47 189.384C1041.47 189.384 1042.72 199.222 1043.14 201.941C1043.55 204.659 1045.28 206.593 1047.17 206.593C1050.12 206.593 1051.33 205.249 1052.04 203.014" stroke="#FF2633" stroke-width="1.25564" stroke-miterlimit="10" stroke-linecap="round"/>
<path d="M1043.15 203.918C1043.15 203.918 1041.72 206.656 1040.28 207.158C1038.85 207.66 1035.98 207.786 1035.14 205.802C1034.42 204.126 1033.99 201.934 1034.14 198.576" stroke="#FF2633" stroke-width="1.25564" stroke-miterlimit="10" stroke-linecap="round"/>
<path d="M1055.79 213.141C1055.79 213.141 1051.11 208.275 1053.21 201.652C1055.31 195.028 1058.35 198.513 1058.35 198.513C1058.35 198.513 1064.94 204.628 1066.66 206.932C1068.02 208.753 1070.16 213.838 1068.06 216.751C1066.34 219.084 1064.15 221.034 1061.63 222.477C1060.79 222.91 1058.45 224.68 1054.72 222.948C1054.41 222.797 1049.59 219.319 1055.79 213.141Z" fill="#F3ABAA"/>
<path d="M1149.14 391.077C1149.14 391.077 1162.04 375.074 1164.91 358.431L1066.39 340.149L1013.09 371.157C999.47 378.094 983.912 398.529 991.157 431.892C997.617 461.65 1004.66 502.527 1004.72 502.967C1013.38 507.625 1023.36 509.176 1033.02 507.362C1040.92 505.769 1048.34 502.379 1054.72 497.455C1054.49 496.067 1043.77 451.291 1039.47 427.535C1038.04 419.58 1038.16 412.831 1045.28 409.008C1045.28 409.008 1061.29 401.643 1066.39 399.019C1068.82 397.763 1072.99 395.252 1077.17 392.666C1065.87 406.842 1062.78 411.927 1060.85 415.179C1054.49 425.852 1046.29 434.083 1051.49 469.586C1053.9 486.01 1059.92 501.787 1068.44 527.238C1070.36 532.964 1072.4 539.167 1074.56 546.004C1074.56 546.004 1089.08 548.277 1103.39 543.493C1118.65 538.407 1124.82 526.184 1124.82 526.184C1098.45 465.342 1098.54 455.824 1105.66 439.193C1108.6 432.3 1132.27 410.069 1149.14 391.077Z" fill="#0D0F44"/>
<path d="M1077.91 389.922L1075.35 380.856" stroke="white" stroke-width="1.25564" stroke-miterlimit="10" stroke-linecap="round"/>
<path d="M1071.97 537.899C1071.97 537.899 1096.3 543.549 1115.42 526.002" stroke="white" stroke-width="1.25564" stroke-miterlimit="10" stroke-linecap="round"/>
<path d="M1003.35 495.113C1003.35 495.113 1017.5 503.005 1033.75 497.674" stroke="white" stroke-width="1.25564" stroke-miterlimit="10" stroke-linecap="round"/>
<path d="M1192.91 275.923C1182.46 248.487 1155.21 230.406 1137.1 225.365C1128.14 221.976 1118.37 221.321 1109.04 223.481C1083.92 225.54 1060.96 251.545 1060.96 251.545C1060.66 242.335 1060.46 228.315 1060.41 223.883C1060.4 222.948 1060.04 222.052 1059.39 221.372C1057.13 218.992 1051.3 213.687 1044.84 214.466C1040.53 215.023 1036.45 216.735 1033.03 219.419C1031.99 220.233 1031.23 221.343 1030.84 222.602C1008.19 296.339 1014.76 313.303 1025.37 320.121C1035.38 326.563 1043.35 320.046 1052.56 314.471C1051.83 320.259 1051.23 326.399 1050.82 332.96C1050.82 332.96 1049.39 345.73 1060.29 351.324C1083.35 363.146 1103.76 374.44 1163.38 362.172C1163.38 362.172 1165.4 357.677 1167.84 350.1C1171.64 350.893 1175.56 350.82 1179.32 349.886C1183.08 348.952 1186.58 347.182 1189.56 344.707C1201.5 337.028 1204.73 306.931 1192.91 275.923Z" fill="#FE5244"/>
<path d="M1162.54 266.637C1162.54 266.637 1166.49 290.212 1164.91 297.363" stroke="white" stroke-width="1.25564" stroke-miterlimit="10" stroke-linecap="round"/>
<path d="M1083.12 242.435C1083.12 242.435 1065.85 254.634 1053.84 308.569" stroke="white" stroke-width="1.25564" stroke-miterlimit="10" stroke-linecap="round"/>
<path d="M1171.78 314.266C1174.66 312.824 1174.88 307.425 1172.26 302.207C1169.65 296.989 1165.2 293.928 1162.32 295.371C1159.44 296.813 1159.22 302.212 1161.83 307.43C1164.45 312.648 1168.9 315.709 1171.78 314.266Z" fill="#F3ABAA"/>
<path d="M1221.38 140.986C1221.38 140.986 1227.3 163.104 1220.1 173.632C1214.36 182.014 1223.33 180.859 1223.33 180.859C1223.33 180.859 1232.59 180.94 1231.25 161.29C1230.06 143.535 1221.38 140.986 1221.38 140.986Z" fill="#FFD550"/>
<path d="M1172.92 71.499C1176.14 69.4335 1180.11 69.6595 1183.59 71.2227C1190.31 74.2363 1204.51 82.354 1211.05 87.05C1219.8 93.3282 1226.81 98.5391 1233.15 104.372C1237.03 107.956 1240.96 115.961 1237.91 123.683C1233.78 134.168 1226.31 149.474 1208.58 156.436C1203.59 158.389 1196.25 157.115 1192.25 153.549C1180.25 142.876 1158.02 121.034 1154.39 106.205C1154.03 104.718 1154.12 103.159 1154.64 101.722C1156.62 96.2225 1162.26 78.3234 1172.92 71.499Z" fill="#F66742"/>
<path d="M1157.55 120.965C1157.55 120.965 1159.37 113.387 1172.19 102.846C1174.55 100.912 1177.78 99.7069 1180.63 100.762C1186.91 103.147 1197.71 109.237 1207.27 127.99C1207.97 129.433 1208.26 131.04 1208.11 132.637C1207.96 134.234 1207.38 135.76 1206.43 137.049C1203.14 141.595 1198.03 146.756 1180.64 152.431L1157.55 120.965Z" fill="#F66742"/>
<path d="M1181.46 151.998C1184.51 149.553 1181.58 140.821 1174.91 132.493C1168.24 124.165 1160.36 119.397 1157.3 121.841C1154.25 124.286 1157.18 133.019 1163.85 141.347C1170.52 149.674 1178.4 154.443 1181.46 151.998Z" fill="#0D0F44"/>
<path d="M1146.31 148.808C1146.31 148.808 1154.47 153.875 1154.14 166.469C1154.14 166.469 1158.06 164.969 1160.83 166.595C1165.17 169.106 1167.38 179.459 1161.33 190.722C1161.33 190.722 1155.1 209.38 1146.97 204.239L1122.86 176.1L1146.31 148.808Z" fill="#0D0F44"/>
<path d="M1122.16 196.334C1121.28 208.527 1112.8 226.601 1112.8 226.601C1112.8 226.601 1121.59 236.427 1144.66 230.852C1144.66 230.852 1145.57 218.992 1145.7 215.389C1146.26 199.831 1143.77 194.237 1143.59 196.962L1122.16 196.334Z" fill="#F3ABAA"/>
<path d="M1117.74 214.434C1117.74 214.434 1134.06 218.201 1145.64 205.739C1145.61 205.231 1145.58 204.747 1145.54 204.283L1120.63 205.048C1119.82 208.25 1118.79 211.477 1117.74 214.434Z" fill="#0D0F44"/>
<path d="M1130.19 210.642C1144.08 210.642 1155.34 199.382 1155.34 185.492C1155.34 171.602 1144.08 160.341 1130.19 160.341C1116.3 160.341 1105.04 171.602 1105.04 185.492C1105.04 199.382 1116.3 210.642 1130.19 210.642Z" fill="#F3ABAA"/>
<path d="M1154.77 191.393C1153.23 194.388 1151.58 194.093 1151.11 193.126C1149.82 190.439 1150.88 188.104 1149.51 179.314C1149.01 176.427 1147.48 173.817 1145.21 171.969C1138.47 166.117 1127.63 167.543 1127.43 167.574C1124.77 167.718 1122.2 168.622 1119.84 169.294C1100.83 174.693 1100.21 162.583 1100.21 157.328C1100.21 148.438 1107.23 141.224 1115.9 141.224C1118.64 141.24 1121.32 141.972 1123.68 143.348C1126.04 144.724 1128 146.696 1129.36 149.066C1131.88 146.649 1135.23 145.299 1138.73 145.299C1146.34 145.299 1152.54 151.64 1152.54 159.456C1152.54 161.779 1151.99 164.069 1150.92 166.13C1154.35 168.453 1155.86 173.727 1156.36 175.773C1157.4 180.074 1156.64 187.758 1154.77 191.393Z" fill="#0D0F44"/>
<path d="M1134.51 182.408C1134.74 180.455 1134.14 178.782 1133.19 178.67C1132.23 178.559 1131.27 180.051 1131.04 182.004C1130.81 183.957 1131.41 185.63 1132.36 185.742C1133.32 185.853 1134.28 184.361 1134.51 182.408Z" fill="#0D0F44"/>
<path d="M1121.46 180.883C1121.68 178.93 1121.09 177.257 1120.13 177.145C1119.18 177.034 1118.22 178.526 1117.99 180.479C1117.76 182.432 1118.35 184.105 1119.31 184.217C1120.27 184.328 1121.23 182.836 1121.46 180.883Z" fill="#0D0F44"/>
<path d="M1132.79 197.747C1132.79 197.747 1137.37 199.561 1139.26 193.798" stroke="#0D0F44" stroke-width="1.25564" stroke-miterlimit="10" stroke-linecap="round"/>
<path d="M1157.3 196.402C1160.99 193.717 1162.5 189.512 1160.68 187.012C1158.86 184.512 1154.4 184.662 1150.71 187.348C1147.02 190.034 1145.51 194.238 1147.33 196.739C1149.15 199.239 1153.61 199.088 1157.3 196.402Z" fill="#F3ABAA"/>
<path d="M1151.11 193.126L1158.54 189.949" stroke="#0D0F44" stroke-width="1.25564" stroke-miterlimit="10" stroke-linecap="round"/>
<path d="M1126.17 182.277L1124.53 189.284C1124.48 189.487 1124.48 189.699 1124.52 189.904C1124.56 190.109 1124.64 190.304 1124.75 190.477C1124.87 190.649 1125.03 190.795 1125.2 190.905C1125.38 191.016 1125.58 191.088 1125.79 191.117L1127.47 191.387" stroke="#0D0F44" stroke-width="1.25564" stroke-miterlimit="10" stroke-linecap="round"/>
<path d="M934.95 267.077L943.583 273.889C944.041 274.253 944.581 274.501 945.156 274.61C945.732 274.72 946.325 274.688 946.885 274.516L957.389 271.271C958.033 271.07 958.72 271.054 959.373 271.224C960.025 271.395 960.617 271.744 961.081 272.234C961.545 272.724 961.863 273.333 961.998 273.994C962.133 274.655 962.081 275.341 961.846 275.973L958.029 286.282C957.825 286.831 957.758 287.421 957.834 288.002C957.909 288.583 958.125 289.137 958.462 289.615L964.797 298.606C965.185 299.156 965.412 299.805 965.451 300.477C965.49 301.15 965.34 301.82 965.018 302.412C964.696 303.004 964.215 303.494 963.628 303.827C963.042 304.159 962.375 304.321 961.702 304.294L950.715 303.854C950.129 303.83 949.546 303.949 949.017 304.201C948.488 304.452 948.027 304.829 947.676 305.298L941.084 314.088C940.679 314.622 940.133 315.033 939.508 315.274C938.883 315.516 938.203 315.579 937.544 315.456C936.885 315.332 936.273 315.028 935.778 314.577C935.282 314.126 934.921 313.546 934.737 312.901L931.742 302.291C931.583 301.728 931.289 301.212 930.887 300.786C930.485 300.361 929.985 300.039 929.432 299.849L919.041 296.327C918.403 296.11 917.838 295.719 917.41 295.198C916.983 294.676 916.71 294.046 916.622 293.377C916.535 292.709 916.636 292.029 916.915 291.415C917.194 290.802 917.639 290.278 918.2 289.904L927.347 283.802C927.835 283.478 928.237 283.04 928.517 282.526C928.797 282.011 928.947 281.437 928.955 280.851L929.086 269.858C929.094 269.181 929.291 268.521 929.656 267.951C930.02 267.381 930.538 266.925 931.149 266.635C931.761 266.345 932.441 266.233 933.113 266.311C933.785 266.389 934.422 266.654 934.95 267.077V267.077Z" fill="#FFCF59"/>
<path d="M991.133 201.087L903.822 222.985C903.02 223.19 902.184 223.231 901.365 223.105C900.547 222.979 899.762 222.689 899.058 222.252C898.355 221.815 897.747 221.241 897.271 220.563C896.795 219.885 896.46 219.118 896.288 218.308L882.137 152.092C881.96 151.267 881.954 150.413 882.121 149.586C882.288 148.758 882.623 147.974 883.106 147.281C883.589 146.588 884.209 146.003 884.928 145.56C885.647 145.118 886.449 144.828 887.285 144.709L976.555 131.977C978.1 131.751 979.674 132.122 980.957 133.014C982.239 133.905 983.134 135.252 983.461 136.78L995.634 193.829C995.969 195.386 995.687 197.013 994.848 198.366C994.008 199.72 992.676 200.695 991.133 201.087V201.087Z" fill="#BEDDFA"/>
<path d="M995.696 194.099C995.696 194.011 995.696 193.924 995.652 193.829L995.571 193.578C995.489 193.578 987.717 195.945 975.65 183.32C962.114 169.169 950.813 170.324 942.482 172.91C940.158 173.688 937.968 174.821 935.991 176.269C933.482 173.548 930.236 171.615 926.649 170.707C920.854 169.118 911.619 171.41 899.194 177.525C895.277 179.446 891.66 181.468 888.766 183.175L888.892 183.734C898.535 178.084 916.792 168.572 926.504 171.24C929.972 172.118 933.111 173.98 935.545 176.602C929.932 180.739 924.709 187.388 923.428 194.181C922.373 199.769 924.162 204.596 928.607 208.15C929.689 209.089 931.095 209.569 932.525 209.487C933.002 209.447 933.472 209.339 933.919 209.167C937.686 207.729 940.423 202.217 941.195 197.521C941.881 192.915 941.532 188.213 940.172 183.759C939.371 181.171 938.07 178.765 936.342 176.677C938.257 175.282 940.374 174.187 942.62 173.432C950.782 170.889 961.901 169.765 975.267 183.703C987.296 196.278 995.005 194.306 995.696 194.099ZM939.676 183.922C941.017 188.298 941.362 192.919 940.687 197.446C939.952 201.84 937.246 207.302 933.743 208.658C932.123 209.286 930.516 208.96 928.965 207.723C926.918 206.206 925.355 204.129 924.463 201.743C923.572 199.356 923.391 196.762 923.943 194.275C925.198 187.589 930.359 181.047 935.871 176.991C937.588 179.026 938.881 181.382 939.676 183.922V183.922Z" fill="white"/>
<path d="M1145.23 362.807L1069.66 350.577C1066.8 350.115 1064.23 348.585 1062.46 346.297C1060.69 344.009 1059.85 341.133 1060.12 338.253L1065.05 285.516C1065.58 279.865 1070.53 276.274 1076.21 276.023C1088.02 275.508 1101.47 275.088 1117.54 276.544C1133 277.951 1144.65 279.727 1153.62 281.253C1164.16 283.042 1168.02 289.044 1167.25 297.269L1162.36 349.553C1162.17 351.575 1161.57 353.537 1160.59 355.317C1159.61 357.097 1158.28 358.656 1156.67 359.899C1155.07 361.142 1153.22 362.042 1151.25 362.542C1149.28 363.042 1147.23 363.132 1145.23 362.807V362.807Z" fill="white"/>
<path d="M1099.71 339.96L1094.79 333.575L1087.3 335.515C1089.99 328.252 1093.46 321.305 1097.67 314.797L1108.64 322.093C1105.04 327.715 1102.05 333.705 1099.71 339.96V339.96ZM1108.64 322.093L1103.15 318.432L1108.64 322.086V322.093Z" fill="#FF2633"/>
<path d="M1115.26 340.902C1112.75 330.913 1111.97 319.588 1111.94 319.111L1125.12 318.244C1125.12 318.351 1125.84 328.873 1128.07 337.675L1120.53 334.906L1115.26 340.902Z" fill="#FF2633"/>
<path d="M1097.67 314.779C1097.57 314.929 1096.51 316.524 1095.03 319.092C1097.61 322.845 1101.39 325.604 1105.75 326.908C1107.36 324.033 1108.57 322.199 1108.64 322.093L1103.15 318.439L1097.67 314.779Z" fill="#0D0F44"/>
<path d="M1125.1 318.244L1111.91 319.111C1111.91 319.374 1112.18 322.972 1112.82 327.831C1117.48 327.678 1121.96 325.942 1125.5 322.909C1125.22 320.14 1125.1 318.288 1125.1 318.244Z" fill="#0D0F44"/>
<path d="M1131.97 307.003C1132.39 296.776 1123.82 288.115 1112.81 287.658C1101.81 287.201 1092.55 295.12 1092.12 305.347C1091.7 315.574 1100.27 324.235 1111.27 324.692C1122.28 325.15 1131.54 317.23 1131.97 307.003Z" fill="#FF2633"/>
<path d="M1114.02 297.896L1115.36 301.814C1115.43 302.022 1115.55 302.208 1115.72 302.359C1115.88 302.51 1116.07 302.62 1116.28 302.68L1120.27 303.785C1120.52 303.854 1120.74 303.99 1120.91 304.177C1121.08 304.364 1121.2 304.595 1121.24 304.844C1121.29 305.094 1121.27 305.351 1121.18 305.588C1121.08 305.824 1120.93 306.031 1120.73 306.184L1117.42 308.695C1117.24 308.827 1117.1 309 1117.01 309.2C1116.91 309.399 1116.87 309.618 1116.88 309.838L1117.06 313.975C1117.07 314.229 1117.01 314.48 1116.89 314.701C1116.76 314.922 1116.58 315.104 1116.35 315.226C1116.13 315.348 1115.88 315.406 1115.63 315.392C1115.37 315.378 1115.13 315.294 1114.92 315.149L1111.53 312.769C1111.35 312.643 1111.14 312.563 1110.92 312.536C1110.7 312.508 1110.48 312.535 1110.27 312.613L1106.39 314.056C1106.16 314.144 1105.9 314.164 1105.65 314.114C1105.4 314.063 1105.17 313.945 1104.99 313.771C1104.8 313.598 1104.67 313.376 1104.61 313.132C1104.54 312.887 1104.54 312.629 1104.62 312.387L1105.83 308.431C1105.9 308.219 1105.91 307.993 1105.87 307.774C1105.83 307.555 1105.74 307.35 1105.6 307.176L1102.99 303.905C1102.83 303.706 1102.74 303.467 1102.71 303.215C1102.68 302.964 1102.72 302.709 1102.83 302.481C1102.94 302.252 1103.11 302.058 1103.32 301.92C1103.53 301.782 1103.78 301.706 1104.03 301.701L1108.18 301.626C1108.4 301.62 1108.61 301.559 1108.81 301.45C1109 301.34 1109.16 301.185 1109.28 300.998L1111.57 297.545C1111.71 297.326 1111.91 297.152 1112.15 297.044C1112.39 296.936 1112.65 296.899 1112.91 296.936C1113.16 296.973 1113.41 297.083 1113.6 297.253C1113.8 297.424 1113.94 297.647 1114.02 297.896Z" fill="#FFD550"/>
<path d="M1078.58 280.368C1078.58 280.368 1070.01 279.464 1069.26 286.985L1068.48 294.519" stroke="#DADEEB" stroke-width="1.88345" stroke-miterlimit="10" stroke-linecap="round"/>
<path d="M1143.89 284.285C1143.89 284.285 1153.93 285.083 1159.68 289.025" stroke="#DADEEB" stroke-width="1.88345" stroke-miterlimit="10" stroke-linecap="round"/>
<path d="M1150.71 310.308C1150.71 310.308 1152.75 301.105 1163.31 304.514C1173.88 307.923 1177.68 314.929 1177.65 318.232C1177.65 319.763 1178.65 348.103 1170.19 350.445C1166.58 351.449 1151.36 350.344 1148.32 337.223C1145.28 324.102 1150.71 310.308 1150.71 310.308Z" fill="#F3ABAA"/>
<path d="M1152.78 309.247C1152.78 309.247 1160.46 310.352 1164.24 313.498" stroke="#FF2633" stroke-width="1.25564" stroke-miterlimit="10" stroke-linecap="round"/>
<path d="M1150.79 317.24C1150.79 317.24 1158.47 318.344 1162.25 321.49" stroke="#FF2633" stroke-width="1.25564" stroke-miterlimit="10" stroke-linecap="round"/>
<path d="M1149.9 324.516C1149.9 324.516 1157.61 325.621 1161.38 328.76" stroke="#FF2633" stroke-width="1.25564" stroke-miterlimit="10" stroke-linecap="round"/>
<path d="M1149.9 333.312C1149.9 333.312 1156.02 333.312 1159.8 336.451" stroke="#FF2633" stroke-width="1.25564" stroke-miterlimit="10" stroke-linecap="round"/>
<path d="M1180.48 102.693C1184.61 105.054 1201.28 116.068 1202.03 135.387C1202.03 138.359 1201.28 145.344 1195.34 146.532L1189.4 148.762" stroke="white" stroke-width="1.48607" stroke-linecap="round"/>
<path fill-rule="evenodd" clip-rule="evenodd" d="M1381.86 86H1376.14V111.301L1366.66 87.8423L1361.37 89.9829L1371.09 114.05L1352.74 95.6954L1348.7 99.736L1366.29 117.328L1343.49 107.367L1341.2 112.604L1365.32 123.143H1339V128.857H1365.32L1341.2 139.396L1343.49 144.633L1366.29 134.672L1348.7 152.264L1352.74 156.304L1371.09 137.95L1361.37 162.017L1366.66 164.158L1376.14 140.699V166H1381.86V140.699L1391.34 164.158L1396.63 162.017L1386.91 137.95L1405.26 156.304L1409.3 152.264L1391.71 134.672L1414.51 144.633L1416.8 139.396L1392.68 128.857H1419V123.143H1392.68L1416.8 112.604L1414.51 107.367L1391.71 117.328L1409.3 99.736L1405.26 95.6954L1386.91 114.05L1396.63 89.9829L1391.34 87.8423L1381.86 111.301V86Z" fill="#F66742"/>
<circle cx="16" cy="16" r="16" transform="matrix(-1 0 0 1 1433 614)" fill="#FFCF59"/>
<circle cx="16" cy="16" r="16" transform="matrix(-1 0 0 1 1088 712)" fill="#9683F8"/>
<circle cx="56.5" cy="56.5" r="56.5" transform="matrix(-1 0 0 1 113 532)" fill="#FFCF59"/>
<defs>
<linearGradient id="paint0_linear_38_1642" x1="1075.5" y1="104" x2="1075.5" y2="643.083" gradientUnits="userSpaceOnUse">
<stop stop-color="#B1A0FD"/>
<stop offset="1" stop-color="#8D79F6"/>
</linearGradient>
</defs>
</svg>
