<svg width="603" height="576" viewBox="0 0 603 576" fill="none" xmlns="http://www.w3.org/2000/svg">
<path d="M168.619 78.0288C203.063 19.3237 287.938 19.3238 322.379 78.0288L323.63 80.1608C339.522 107.243 368.487 123.967 399.886 124.187L402.361 124.205C470.422 124.681 512.859 198.184 479.239 257.365L478.018 259.515C462.509 286.817 462.509 320.266 478.018 347.568L479.239 349.716C512.859 408.9 470.422 482.401 402.361 482.878L399.886 482.894C368.487 483.115 339.522 499.84 323.63 526.921L322.379 529.053C287.938 587.759 203.063 587.759 168.619 529.053L167.368 526.921C151.478 499.84 122.511 483.115 91.1123 482.894L88.6403 482.878C20.5785 482.401 -21.8582 408.9 11.7599 349.716L12.9809 347.568C28.49 320.266 28.49 286.817 12.9809 259.515L11.7599 257.365C-21.8582 198.184 20.5785 124.681 88.6403 124.205L91.1123 124.187C122.511 123.967 151.478 107.243 167.368 80.1608L168.619 78.0288Z" fill="url(#paint0_linear_60_1100)"/>
<path d="M102.356 259.576C102.356 259.576 126.646 329.546 173.011 355.004" stroke="#DADEEB" stroke-width="1.88345" stroke-miterlimit="10" stroke-linecap="round"/>
<path d="M387.121 359.77L309.485 314.943C307.833 313.988 306.462 312.615 305.509 310.962C304.556 309.309 304.054 307.434 304.054 305.526C304.054 303.618 304.556 301.743 305.509 300.091C306.462 298.438 307.833 297.064 309.485 296.109L387.121 251.289C388.774 250.331 390.651 249.826 392.561 249.825C394.472 249.823 396.349 250.325 398.004 251.28C399.659 252.235 401.033 253.609 401.988 255.263C402.943 256.918 403.445 258.796 403.444 260.706V350.321C403.449 352.233 402.95 354.114 401.997 355.772C401.043 357.43 399.67 358.807 398.015 359.765C396.359 360.723 394.481 361.228 392.568 361.229C390.656 361.23 388.777 360.726 387.121 359.77Z" stroke="#DADEEB" stroke-width="1.88345" stroke-miterlimit="10"/>
<path d="M175.158 205.508C175.158 205.508 170.656 227.727 175.158 242.28" stroke="#FF2633" stroke-width="2.51127" stroke-miterlimit="10" stroke-linecap="round"/>
<path d="M456 503.806C456 503.806 516.89 464.983 509.414 412" stroke="#FF2633" stroke-width="2.51127" stroke-miterlimit="10" stroke-linecap="round"/>
<path d="M180.367 425.387C180.367 425.387 181.975 445.638 173.23 458.984C164.486 472.331 155.975 480.841 161.038 496.51L226.843 463.147L218.793 417.585L180.367 425.387Z" fill="#F66742"/>
<path d="M179.434 451.373L194.487 448.37" stroke="white" stroke-width="2.12413" stroke-miterlimit="10" stroke-linecap="round"/>
<path d="M249.751 467.697C249.751 467.697 254.77 488.27 247.979 503.454C241.188 518.638 233.836 528.811 241.638 544.054L303.845 498.811L288.011 453.25L249.751 467.697Z" fill="#F66742"/>
<path d="M252.978 497.497L268.634 494.182" stroke="white" stroke-width="2.21455" stroke-miterlimit="10" stroke-linecap="round"/>
<path d="M201.727 148.791C201.727 148.791 197.702 128.513 204.784 121.381C211.866 114.249 223.393 111.122 229.357 112.296C233.413 113.106 238.68 114.958 239.402 125.581C240.124 136.204 238.529 139.751 238.529 139.751C238.529 139.751 234.543 153.77 226.896 155.113C219.249 156.457 204.363 156.419 201.727 148.791Z" fill="#F3ABAA"/>
<path d="M229.22 113.188C229.22 113.188 229.672 118.298 230.218 126.303" stroke="#FF2633" stroke-width="1.25564" stroke-miterlimit="10" stroke-linecap="round"/>
<path d="M219.456 115.059C219.456 115.059 220.329 122.335 221.722 130.384C222.714 136.072 228.434 137.817 230.788 133.014" stroke="#FF2633" stroke-width="1.25564" stroke-miterlimit="10" stroke-linecap="round"/>
<path d="M211.465 119.384C211.465 119.384 212.721 129.222 213.135 131.941C213.55 134.659 215.276 136.593 217.172 136.593C220.123 136.593 221.335 135.249 222.038 133.014" stroke="#FF2633" stroke-width="1.25564" stroke-miterlimit="10" stroke-linecap="round"/>
<path d="M213.147 133.918C213.147 133.918 211.716 136.656 210.284 137.158C208.853 137.66 205.984 137.786 205.136 135.802C204.42 134.125 203.993 131.934 204.138 128.576" stroke="#FF2633" stroke-width="1.25564" stroke-miterlimit="10" stroke-linecap="round"/>
<path d="M225.786 143.141C225.786 143.141 221.108 138.275 223.212 131.652C225.315 125.028 228.353 128.513 228.353 128.513C228.353 128.513 234.939 134.628 236.659 136.932C238.016 138.753 240.163 143.838 238.059 146.751C236.336 149.084 234.147 151.034 231.631 152.477C230.789 152.91 228.448 154.68 224.725 152.948C224.411 152.797 219.589 149.319 225.786 143.141Z" fill="#F3ABAA"/>
<path d="M319.135 321.077C319.135 321.077 332.043 305.074 334.906 288.431L236.389 270.149L183.087 301.156C169.47 308.094 153.912 328.529 161.157 361.892C167.617 391.65 174.655 432.527 174.724 432.967C183.376 437.624 193.363 439.176 203.02 437.362C210.917 435.769 218.342 432.379 224.718 427.455C224.491 426.067 213.768 381.291 209.474 357.535C208.036 349.58 208.156 342.831 215.281 339.008C215.281 339.008 231.291 331.643 236.389 329.019C238.818 327.763 242.987 325.252 247.168 322.666C235.868 336.842 232.785 341.927 230.845 345.179C224.491 355.852 216.292 364.083 221.491 399.586C223.895 416.01 229.916 431.787 238.442 457.238C240.363 462.964 242.403 469.167 244.563 476.004C244.563 476.004 259.084 478.277 273.386 473.493C288.648 468.407 294.82 456.184 294.82 456.184C268.451 395.342 268.539 385.824 275.659 369.193C278.597 362.3 302.272 340.069 319.135 321.077Z" fill="#0D0F44"/>
<path d="M247.915 319.922L245.347 310.856" stroke="white" stroke-width="1.25564" stroke-miterlimit="10" stroke-linecap="round"/>
<path d="M241.971 467.899C241.971 467.899 266.305 473.549 285.416 456.002" stroke="white" stroke-width="1.25564" stroke-miterlimit="10" stroke-linecap="round"/>
<path d="M173.351 425.113C173.351 425.113 187.495 433.005 203.75 427.674" stroke="white" stroke-width="1.25564" stroke-miterlimit="10" stroke-linecap="round"/>
<path d="M362.913 205.923C352.46 178.487 325.206 160.406 307.1 155.365C298.137 151.976 288.371 151.321 279.036 153.481C253.924 155.54 230.964 181.545 230.964 181.545C230.657 172.335 230.462 158.315 230.406 153.883C230.397 152.948 230.036 152.052 229.395 151.372C227.128 148.992 221.296 143.687 214.836 144.466C210.525 145.023 206.445 146.735 203.027 149.419C201.99 150.233 201.225 151.343 200.835 152.602C178.19 226.339 184.763 243.303 195.367 250.121C205.381 256.563 213.354 250.046 222.558 244.471C221.83 250.259 221.233 256.399 220.819 262.96C220.819 262.96 219.394 275.73 230.293 281.324C253.352 293.146 273.763 304.44 333.38 292.172C333.38 292.172 335.396 287.677 337.844 280.099C341.636 280.893 345.559 280.82 349.319 279.886C353.079 278.952 356.58 277.182 359.56 274.707C371.495 267.028 374.728 236.931 362.913 205.923Z" fill="#FE5244"/>
<path d="M332.539 196.637C332.539 196.637 336.494 220.212 334.905 227.363" stroke="white" stroke-width="1.25564" stroke-miterlimit="10" stroke-linecap="round"/>
<path d="M253.12 172.435C253.12 172.435 235.849 184.633 223.839 238.569" stroke="white" stroke-width="1.25564" stroke-miterlimit="10" stroke-linecap="round"/>
<path d="M341.779 244.266C344.66 242.824 344.876 237.425 342.263 232.207C339.65 226.989 335.197 223.928 332.317 225.371C329.437 226.813 329.22 232.212 331.833 237.43C334.446 242.648 338.899 245.708 341.779 244.266Z" fill="#F3ABAA"/>
<path d="M391.385 70.9859C391.385 70.9859 397.299 93.1039 390.098 103.632C384.36 112.014 393.331 110.859 393.331 110.859C393.331 110.859 402.585 110.94 401.254 91.2895C400.055 73.5348 391.385 70.9859 391.385 70.9859Z" fill="#FFD550"/>
<path d="M342.922 1.49895C346.143 -0.566571 350.11 -0.340557 353.595 1.22271C360.312 4.23624 374.507 12.3539 381.049 17.05C389.801 23.3282 396.814 28.5391 403.148 34.3715C407.035 37.9563 410.958 45.961 407.914 53.6832C403.782 64.1678 396.305 79.4739 378.576 86.4364C373.591 88.389 366.252 87.1145 362.252 83.5485C350.248 72.8756 328.017 51.0338 324.389 36.2047C324.031 34.7182 324.118 33.1594 324.64 31.7221C326.617 26.2224 332.261 8.32333 342.922 1.49895Z" fill="#F66742"/>
<path d="M327.547 50.9648C327.547 50.9648 329.368 43.387 342.194 32.846C344.548 30.9123 347.781 29.7069 350.632 30.7616C356.91 33.1473 367.715 39.2372 377.27 57.9901C377.97 59.4332 378.261 61.0402 378.113 62.6371C377.965 64.234 377.382 65.7599 376.429 67.0495C373.139 71.5949 368.029 76.7556 350.638 82.431L327.547 50.9648Z" fill="#F66742"/>
<path d="M351.457 81.9983C354.509 79.5534 351.578 70.8206 344.908 62.493C338.239 54.1654 330.358 49.3965 327.305 51.8414C324.252 54.2863 327.184 63.0192 333.853 71.3467C340.522 79.6743 348.404 84.4432 351.457 81.9983Z" fill="#0D0F44"/>
<path d="M316.308 78.8084C316.308 78.8084 324.47 83.8749 324.137 96.4689C324.137 96.4689 328.061 94.9685 330.83 96.5945C335.168 99.1058 337.378 109.458 331.326 120.722C331.326 120.722 325.098 139.38 316.968 134.238L292.859 106.1L316.308 78.8084Z" fill="#0D0F44"/>
<path d="M292.164 126.334C291.285 138.526 282.803 156.601 282.803 156.601C282.803 156.601 291.592 166.427 314.665 160.852C314.665 160.852 315.575 148.992 315.7 145.389C316.259 129.831 313.773 124.237 313.591 126.962L292.164 126.334Z" fill="#F3ABAA"/>
<path d="M287.738 144.434C287.738 144.434 304.061 148.201 315.644 135.739C315.613 135.23 315.582 134.747 315.544 134.282L290.632 135.048C289.822 138.25 288.786 141.477 287.738 144.434Z" fill="#0D0F44"/>
<path d="M300.194 140.642C314.084 140.642 325.344 129.382 325.344 115.492C325.344 101.602 314.084 90.3414 300.194 90.3414C286.304 90.3414 275.043 101.602 275.043 115.492C275.043 129.382 286.304 140.642 300.194 140.642Z" fill="#F3ABAA"/>
<path d="M324.773 121.393C323.229 124.388 321.584 124.093 321.113 123.126C319.82 120.439 320.881 118.104 319.506 109.314C319.01 106.427 317.484 103.817 315.211 101.969C308.475 96.1174 297.633 97.5426 297.425 97.574C294.77 97.7184 292.202 98.6224 289.835 99.2942C270.831 104.693 270.209 92.5828 270.209 87.328C270.209 78.4381 277.228 71.2244 285.905 71.2244C288.638 71.2398 291.318 71.9721 293.679 73.3482C296.04 74.7242 297.999 76.6958 299.359 79.0659C301.878 76.6486 305.235 75.2989 308.726 75.299C316.342 75.299 322.538 81.6399 322.538 89.4563C322.544 91.7789 321.988 94.0686 320.918 96.13C324.346 98.4529 325.859 103.727 326.355 105.773C327.404 110.074 326.644 117.758 324.773 121.393Z" fill="#0D0F44"/>
<path d="M304.509 112.408C304.736 110.455 304.144 108.782 303.187 108.67C302.229 108.559 301.269 110.051 301.041 112.004C300.814 113.957 301.406 115.63 302.364 115.742C303.321 115.853 304.281 114.361 304.509 112.408Z" fill="#0D0F44"/>
<path d="M291.457 110.883C291.684 108.93 291.092 107.256 290.135 107.145C289.178 107.034 288.217 108.526 287.99 110.479C287.762 112.432 288.354 114.105 289.312 114.217C290.269 114.328 291.23 112.835 291.457 110.883Z" fill="#0D0F44"/>
<path d="M302.785 127.747C302.785 127.747 307.368 129.561 309.264 123.798" stroke="#0D0F44" stroke-width="1.25564" stroke-miterlimit="10" stroke-linecap="round"/>
<path d="M327.301 126.402C330.99 123.716 332.504 119.512 330.684 117.012C328.863 114.512 324.397 114.662 320.708 117.348C317.02 120.034 315.505 124.238 317.326 126.739C319.146 129.239 323.612 129.088 327.301 126.402Z" fill="#F3ABAA"/>
<path d="M321.112 123.126L328.539 119.949" stroke="#0D0F44" stroke-width="1.25564" stroke-miterlimit="10" stroke-linecap="round"/>
<path d="M296.169 112.277L294.53 119.284C294.483 119.487 294.478 119.699 294.517 119.904C294.555 120.109 294.636 120.304 294.754 120.477C294.872 120.649 295.025 120.795 295.203 120.905C295.38 121.016 295.579 121.088 295.786 121.117L297.468 121.387" stroke="#0D0F44" stroke-width="1.25564" stroke-miterlimit="10" stroke-linecap="round"/>
<path d="M104.95 197.077L113.583 203.889C114.041 204.253 114.581 204.501 115.156 204.61C115.732 204.72 116.325 204.687 116.885 204.516L127.389 201.271C128.033 201.07 128.72 201.054 129.373 201.224C130.025 201.395 130.617 201.744 131.081 202.234C131.545 202.723 131.863 203.333 131.998 203.994C132.133 204.655 132.081 205.341 131.846 205.973L128.029 216.282C127.825 216.831 127.758 217.421 127.834 218.002C127.909 218.583 128.125 219.137 128.462 219.615L134.797 228.606C135.185 229.156 135.412 229.805 135.451 230.477C135.49 231.15 135.34 231.82 135.018 232.412C134.696 233.004 134.215 233.494 133.628 233.827C133.042 234.159 132.375 234.321 131.702 234.294L120.715 233.854C120.129 233.83 119.546 233.949 119.017 234.201C118.488 234.452 118.027 234.829 117.676 235.298L111.084 244.088C110.679 244.622 110.133 245.033 109.508 245.274C108.883 245.516 108.203 245.579 107.544 245.456C106.885 245.332 106.273 245.028 105.778 244.577C105.282 244.126 104.921 243.546 104.737 242.901L101.742 232.291C101.583 231.728 101.289 231.212 100.887 230.786C100.485 230.361 99.9853 230.039 99.4318 229.849L89.0414 226.327C88.403 226.11 87.838 225.719 87.4105 225.198C86.9829 224.676 86.7099 224.046 86.6224 223.377C86.5348 222.709 86.6362 222.029 86.915 221.415C87.1939 220.802 87.6391 220.278 88.2001 219.904L97.3474 213.802C97.8352 213.478 98.2366 213.04 98.5167 212.526C98.7968 212.011 98.9471 211.437 98.9546 210.851L99.0865 199.858C99.0937 199.181 99.2909 198.521 99.6556 197.951C100.02 197.381 100.538 196.925 101.149 196.635C101.761 196.345 102.441 196.233 103.113 196.311C103.785 196.389 104.422 196.654 104.95 197.077Z" fill="#FFCF59"/>
<path d="M161.133 131.087L73.822 152.985C73.0196 153.19 72.1839 153.231 71.3653 153.105C70.5467 152.979 69.762 152.689 69.0584 152.252C68.3547 151.815 67.7466 151.241 67.2706 150.563C66.7945 149.885 66.4604 149.118 66.2882 148.308L52.1372 82.0919C51.9599 81.2665 51.9544 80.4134 52.121 79.5857C52.2877 78.758 52.6229 77.9735 53.1058 77.2809C53.5887 76.5884 54.2089 76.0026 54.928 75.5601C55.647 75.1176 56.4494 74.8278 57.2853 74.7088L146.555 61.9767C148.1 61.7509 149.674 62.1216 150.957 63.0135C152.239 63.9054 153.134 65.2518 153.461 66.7795L165.634 123.829C165.969 125.386 165.687 127.013 164.848 128.366C164.008 129.72 162.676 130.695 161.133 131.087Z" fill="#BEDDFA"/>
<path d="M165.696 124.099C165.696 124.011 165.696 123.923 165.652 123.829L165.571 123.578C165.489 123.578 157.717 125.945 145.65 113.32C132.114 99.1686 120.813 100.324 112.482 102.91C110.158 103.688 107.968 104.821 105.991 106.269C103.482 103.548 100.236 101.615 96.6487 100.707C90.8539 99.1184 81.6187 101.41 69.1942 107.525C65.2766 109.446 61.6604 111.468 58.7661 113.175L58.8917 113.734C68.535 108.084 86.7919 98.5722 96.5043 101.24C99.9718 102.118 103.111 103.98 105.545 106.602C99.9321 110.739 94.7087 117.388 93.4279 124.181C92.3732 129.768 94.1625 134.596 98.6074 138.15C99.6893 139.089 101.095 139.569 102.525 139.487C103.002 139.447 103.472 139.339 103.919 139.167C107.686 137.729 110.423 132.217 111.195 127.521C111.881 122.915 111.532 118.213 110.172 113.759C109.371 111.171 108.07 108.765 106.342 106.677C108.257 105.281 110.374 104.187 112.62 103.431C120.782 100.889 131.901 99.765 145.267 113.703C157.296 126.278 165.005 124.306 165.696 124.099ZM109.676 113.922C111.017 118.298 111.362 122.919 110.687 127.446C109.952 131.84 107.246 137.302 103.743 138.658C102.123 139.286 100.516 138.96 98.9653 137.723C96.9184 136.206 95.3547 134.129 94.4633 131.742C93.572 129.356 93.3912 126.762 93.9428 124.275C95.1984 117.589 100.359 111.047 105.871 106.991C107.588 109.026 108.881 111.382 109.676 113.922Z" fill="white"/>
<path d="M315.23 292.806L239.659 280.577C236.803 280.115 234.23 278.585 232.459 276.297C230.688 274.009 229.853 271.133 230.123 268.253L235.051 215.516C235.585 209.865 240.526 206.274 246.208 206.023C258.017 205.508 271.471 205.088 287.537 206.544C303 207.951 314.652 209.727 323.618 211.253C334.159 213.042 338.02 219.044 337.247 227.269L332.357 279.553C332.169 281.575 331.567 283.537 330.589 285.317C329.611 287.097 328.278 288.656 326.672 289.899C325.065 291.142 323.221 292.041 321.253 292.542C319.285 293.042 317.234 293.132 315.23 292.806Z" fill="white"/>
<path d="M269.714 269.96L264.792 263.575L257.295 265.515C259.987 258.252 263.465 251.305 267.667 244.797L278.641 252.093C275.041 257.715 272.048 263.705 269.714 269.96ZM278.641 252.093L273.154 248.432L278.641 252.086V252.093Z" fill="#FF2633"/>
<path d="M285.26 270.902C282.748 260.913 281.97 249.588 281.938 249.11L295.123 248.244C295.123 248.351 295.845 258.873 298.067 267.675L290.533 264.906L285.26 270.902Z" fill="#FF2633"/>
<path d="M267.672 244.779C267.566 244.929 266.511 246.524 265.029 249.092C267.606 252.845 271.39 255.604 275.752 256.908C277.36 254.033 278.565 252.199 278.64 252.093L273.153 248.439L267.672 244.779Z" fill="#0D0F44"/>
<path d="M295.096 248.244L281.912 249.11C281.912 249.374 282.176 252.972 282.816 257.831C287.482 257.678 291.956 255.942 295.504 252.909C295.222 250.14 295.096 248.288 295.096 248.244Z" fill="#0D0F44"/>
<path d="M301.967 237.003C302.392 226.776 293.817 218.115 282.814 217.658C271.811 217.201 262.547 225.12 262.122 235.347C261.697 245.574 270.272 254.235 281.275 254.692C292.278 255.15 301.542 247.23 301.967 237.003Z" fill="#FF2633"/>
<path d="M284.015 227.896L285.359 231.814C285.432 232.022 285.555 232.208 285.715 232.359C285.876 232.51 286.07 232.62 286.282 232.68L290.275 233.785C290.519 233.854 290.739 233.99 290.91 234.177C291.081 234.364 291.197 234.595 291.244 234.844C291.291 235.094 291.267 235.351 291.176 235.588C291.085 235.824 290.929 236.031 290.727 236.184L287.418 238.695C287.242 238.827 287.101 239 287.007 239.199C286.913 239.399 286.869 239.618 286.878 239.838L287.06 243.975C287.071 244.229 287.01 244.48 286.885 244.701C286.761 244.922 286.577 245.104 286.354 245.226C286.131 245.348 285.879 245.406 285.626 245.392C285.372 245.378 285.127 245.294 284.919 245.149L281.529 242.769C281.348 242.643 281.139 242.563 280.921 242.536C280.702 242.508 280.48 242.535 280.273 242.612L276.394 244.056C276.156 244.144 275.899 244.164 275.65 244.114C275.402 244.063 275.173 243.945 274.988 243.771C274.804 243.598 274.671 243.376 274.606 243.132C274.54 242.887 274.544 242.629 274.617 242.386L275.828 238.431C275.896 238.219 275.91 237.993 275.869 237.774C275.829 237.555 275.735 237.35 275.596 237.176L272.991 233.905C272.834 233.706 272.737 233.467 272.708 233.215C272.68 232.964 272.722 232.709 272.831 232.481C272.939 232.252 273.109 232.058 273.321 231.92C273.533 231.782 273.78 231.706 274.033 231.701L278.177 231.626C278.398 231.62 278.615 231.559 278.808 231.45C279 231.34 279.163 231.185 279.281 230.998L281.573 227.545C281.714 227.326 281.914 227.152 282.151 227.044C282.387 226.936 282.65 226.899 282.907 226.936C283.165 226.973 283.406 227.083 283.602 227.253C283.799 227.424 283.942 227.647 284.015 227.896Z" fill="#FFD550"/>
<path d="M248.581 210.368C248.581 210.368 240.005 209.464 239.258 216.985L238.479 224.519" stroke="#DADEEB" stroke-width="1.88345" stroke-miterlimit="10" stroke-linecap="round"/>
<path d="M313.887 214.285C313.887 214.285 323.932 215.083 329.683 219.025" stroke="#DADEEB" stroke-width="1.88345" stroke-miterlimit="10" stroke-linecap="round"/>
<path d="M320.706 240.308C320.706 240.308 322.746 231.105 333.312 234.514C343.879 237.923 347.683 244.929 347.645 248.231C347.645 249.763 348.65 278.103 340.193 280.445C336.577 281.449 321.359 280.344 318.32 267.223C315.281 254.102 320.706 240.308 320.706 240.308Z" fill="#F3ABAA"/>
<path d="M322.782 239.247C322.782 239.247 330.46 240.352 334.24 243.498" stroke="#FF2633" stroke-width="1.25564" stroke-miterlimit="10" stroke-linecap="round"/>
<path d="M320.792 247.239C320.792 247.239 328.47 248.344 332.25 251.49" stroke="#FF2633" stroke-width="1.25564" stroke-miterlimit="10" stroke-linecap="round"/>
<path d="M319.901 254.516C319.901 254.516 327.611 255.621 331.378 258.76" stroke="#FF2633" stroke-width="1.25564" stroke-miterlimit="10" stroke-linecap="round"/>
<path d="M319.901 263.312C319.901 263.312 326.023 263.312 329.802 266.451" stroke="#FF2633" stroke-width="1.25564" stroke-miterlimit="10" stroke-linecap="round"/>
<path d="M350.48 32.6935C354.611 35.054 371.285 46.0681 372.028 65.3869C372.028 68.3591 371.285 75.3436 365.341 76.5324L359.396 78.7615" stroke="white" stroke-width="1.48607" stroke-linecap="round"/>
<path fill-rule="evenodd" clip-rule="evenodd" d="M551.857 16H546.143V41.3012L536.665 17.8423L531.367 19.9829L541.09 44.0496L522.736 25.6954L518.695 29.736L536.287 47.3276L513.49 37.3672L511.202 42.6036L535.324 53.1428H509V58.8572H535.324L511.202 69.3964L513.49 74.6328L536.287 64.6724L518.695 82.264L522.736 86.3044L541.09 67.9504L531.367 92.0172L536.665 94.1576L546.143 70.6988V96H551.857V70.6988L561.335 94.1576L566.633 92.0172L556.91 67.9504L575.264 86.3044L579.304 82.264L561.713 64.6724L584.51 74.6328L586.798 69.3964L562.676 58.8572H589V53.1428H562.676L586.798 42.6036L584.51 37.3672L561.713 47.3276L579.304 29.736L575.264 25.6954L556.91 44.0495L566.633 19.9829L561.335 17.8423L551.857 41.3012V16Z" fill="#F66742"/>
<circle cx="16" cy="16" r="16" transform="matrix(-1 0 0 1 603 544)" fill="#FFCF59"/>
<defs>
<linearGradient id="paint0_linear_60_1100" x1="245.5" y1="34" x2="245.5" y2="573.083" gradientUnits="userSpaceOnUse">
<stop stop-color="#B1A0FD"/>
<stop offset="1" stop-color="#8D79F6"/>
</linearGradient>
</defs>
</svg>
